<?xml version="1.0" encoding="UTF-8" standalone="no"?>
<!-- Created with Inkscape (http://www.inkscape.org/) -->

<svg
   xmlns:dc="http://purl.org/dc/elements/1.1/"
   xmlns:cc="http://creativecommons.org/ns#"
   xmlns:rdf="http://www.w3.org/1999/02/22-rdf-syntax-ns#"
   xmlns:svg="http://www.w3.org/2000/svg"
   xmlns="http://www.w3.org/2000/svg"
   xmlns:sodipodi="http://sodipodi.sourceforge.net/DTD/sodipodi-0.dtd"
   xmlns:inkscape="http://www.inkscape.org/namespaces/inkscape"
   width="700"
   height="330"
   id="svg2"
   version="1.1"
   inkscape:version="0.48.4 r9939"
   sodipodi:docname="New document 1">
  <defs
     id="defs4" />
  <sodipodi:namedview
     id="base"
     pagecolor="#ffffff"
     bordercolor="#666666"
     borderopacity="1.0"
     inkscape:pageopacity="0.0"
     inkscape:pageshadow="2"
     inkscape:zoom="0.90509668"
     inkscape:cx="441.63983"
     inkscape:cy="24.444676"
     inkscape:document-units="px"
     inkscape:current-layer="layer1"
     showgrid="false"
     inkscape:snap-global="true"
     inkscape:object-nodes="true"
     inkscape:snap-nodes="true"
     inkscape:snap-midpoints="true"
     inkscape:object-paths="true"
     inkscape:snap-intersection-paths="true"
     inkscape:snap-smooth-nodes="true"
     inkscape:snap-object-midpoints="true"
     inkscape:snap-center="true"
     inkscape:window-width="1920"
     inkscape:window-height="1003"
     inkscape:window-x="0"
     inkscape:window-y="25"
     inkscape:window-maximized="1" />
  <metadata
     id="metadata7">
    <rdf:RDF>
      <cc:Work
         rdf:about="">
        <dc:format>image/svg+xml</dc:format>
        <dc:type
           rdf:resource="http://purl.org/dc/dcmitype/StillImage" />
        <dc:title></dc:title>
      </cc:Work>
    </rdf:RDF>
  </metadata>
  <g
     inkscape:label="Layer 1"
     inkscape:groupmode="layer"
     id="layer1"
     transform="translate(0,-722.36218)">
    <path
       style="fill:none;stroke:#787878;stroke-width:4;stroke-linecap:butt;stroke-linejoin:miter;stroke-miterlimit:4;stroke-opacity:1;stroke-dasharray:none"
       d="M 4.5368335,1045.8691 411.54211,846.97592"
       id="path4060"
       inkscape:connector-curvature="0"
       sodipodi:nodetypes="cc" />
    <path
       style="fill:none;fill-opacity:1;stroke:#787878;stroke-width:4;stroke-linecap:butt;stroke-linejoin:miter;stroke-miterlimit:4;stroke-opacity:1;stroke-dasharray:none"
       d="M 99.003958,1017.9166 366.82855,777.53989"
       id="path4062"
       inkscape:connector-curvature="0"
       sodipodi:nodetypes="cc" />
    <path
       style="fill:none;stroke:#787878;stroke-width:4;stroke-linecap:butt;stroke-linejoin:miter;stroke-miterlimit:4;stroke-opacity:1;stroke-dasharray:none"
       d="M 615.8757,959.28818 346.09402,728.87176"
       id="path4064"
       inkscape:connector-curvature="0"
       sodipodi:nodetypes="cc" />
    <path
       style="fill:none;stroke:#787878;stroke-width:4;stroke-linecap:butt;stroke-linejoin:miter;stroke-miterlimit:4;stroke-opacity:1;stroke-dasharray:none"
       d="M 697.06869,1017.6705 343.48849,755.57486"
       id="path4066"
       inkscape:connector-curvature="0"
       sodipodi:nodetypes="cc" />
    <path
       style="fill:none;stroke:#787878;stroke-width:4;stroke-linecap:butt;stroke-linejoin:miter;stroke-miterlimit:4;stroke-opacity:1;stroke-dasharray:none"
       d="m 167.55894,911.81961 395.8234,-59.57754"
       id="path4068"
       inkscape:connector-curvature="0"
       sodipodi:nodetypes="cc" />
    <path
       style="fill:#ff0076;stroke:#ff9f00;stroke-width:4;stroke-linecap:butt;stroke-linejoin:miter;stroke-miterlimit:4;stroke-opacity:1;stroke-dasharray:8,4;stroke-dashoffset:0"
       d="m 359.75772,856.32272 0.12208,-72.54621 0.033,-43.10232"
       id="path4070"
       inkscape:connector-curvature="0"
       sodipodi:nodetypes="ccc" />
    <path
       style="fill:none;stroke:#0000ff;stroke-width:4;stroke-linecap:butt;stroke-linejoin:miter;stroke-miterlimit:4;stroke-opacity:1;stroke-dasharray:8,4;stroke-dashoffset:0"
       d="m 359.75772,856.32272 0,26.568 0.18127,-0.0273"
       id="path4072"
       inkscape:connector-curvature="0" />
    <path
       sodipodi:type="arc"
       style="fill:#000000;fill-opacity:1;stroke-width:0.1;stroke-miterlimit:4;stroke-dasharray:none"
       id="path3950-7-6"
       sodipodi:cx="328.90625"
       sodipodi:cy="176.58093"
       sodipodi:rx="9.4074955"
       sodipodi:ry="9.4074955"
       d="m 338.31375,176.58093 a 9.4074955,9.4074955 0 1 1 -18.815,0 9.4074955,9.4074955 0 1 1 18.815,0 z"
       transform="matrix(1.0446473,0,0,1.0446473,-117.67874,718.37738)" />
    <path
       sodipodi:type="arc"
       style="fill:#000000;fill-opacity:1;stroke-width:0.1;stroke-miterlimit:4;stroke-dasharray:none"
       id="path3950-7"
       sodipodi:cx="328.90625"
       sodipodi:cy="176.58093"
       sodipodi:rx="9.4074955"
       sodipodi:ry="9.4074955"
       d="m 338.31375,176.58093 a 9.4074955,9.4074955 0 1 1 -18.815,0 9.4074955,9.4074955 0 1 1 18.815,0 z"
       transform="matrix(1.0446473,0,0,1.0446473,-200.10794,792.64527)" />
    <path
       sodipodi:type="arc"
       style="fill:#000000;fill-opacity:1;stroke-width:0.1;stroke-miterlimit:4;stroke-dasharray:none"
       id="path3950-7-68"
       sodipodi:cx="328.90625"
       sodipodi:cy="176.58093"
       sodipodi:rx="9.4074955"
       sodipodi:ry="9.4074955"
       d="m 338.31375,176.58093 a 9.4074955,9.4074955 0 1 1 -18.815,0 9.4074955,9.4074955 0 1 1 18.815,0 z"
       transform="matrix(1.0446473,0,0,1.0446473,-298.85975,841.61312)" />
    <path
       sodipodi:type="arc"
       style="fill:#ff0000;fill-opacity:1;stroke-width:0.1;stroke-miterlimit:4;stroke-dasharray:none"
       id="path3950"
       sodipodi:cx="328.90625"
       sodipodi:cy="176.58093"
       sodipodi:rx="9.4074955"
       sodipodi:ry="9.4074955"
       d="m 338.31375,176.58093 a 9.4074955,9.4074955 0 1 1 -18.815,0 9.4074955,9.4074955 0 1 1 18.815,0 z"
       transform="matrix(1.0446473,0,0,1.0446473,16.166697,671.85793)" />
    <path
       sodipodi:type="arc"
       style="fill:#000000;fill-opacity:1;stroke-width:0.1;stroke-miterlimit:4;stroke-dasharray:none"
       id="path3950-7-68-3"
       sodipodi:cx="328.90625"
       sodipodi:cy="176.58093"
       sodipodi:rx="9.4074955"
       sodipodi:ry="9.4074955"
       d="m 338.31375,176.58093 a 9.4074955,9.4074955 0 1 1 -18.815,0 9.4074955,9.4074955 0 1 1 18.815,0 z"
       transform="matrix(1.0446473,0,0,1.0446473,158.17344,677.57084)" />
    <path
       sodipodi:type="arc"
       style="fill:#000000;fill-opacity:1;stroke-width:0.1;stroke-miterlimit:4;stroke-dasharray:none"
       id="path3950-7-68-3-0"
       sodipodi:cx="328.90625"
       sodipodi:cy="176.58093"
       sodipodi:rx="9.4074955"
       sodipodi:ry="9.4074955"
       d="m 338.31375,176.58093 a 9.4074955,9.4074955 0 1 1 -18.815,0 9.4074955,9.4074955 0 1 1 18.815,0 z"
       transform="matrix(1.0446473,0,0,1.0446473,246.31555,753.471)" />
    <path
       sodipodi:type="arc"
       style="fill:#000000;fill-opacity:1;stroke-width:0.1;stroke-miterlimit:4;stroke-dasharray:none"
       id="path3950-7-68-3-0-6"
       sodipodi:cx="328.90625"
       sodipodi:cy="176.58093"
       sodipodi:rx="9.4074955"
       sodipodi:ry="9.4074955"
       d="m 338.31375,176.58093 a 9.4074955,9.4074955 0 1 1 -18.815,0 9.4074955,9.4074955 0 1 1 18.815,0 z"
       transform="matrix(1.0446473,0,0,1.0446473,320.58345,808.96789)" />
  </g>
</svg>
